<svg width="34.226700" height="34.000000" viewBox="0 0 34.2267 34" fill="none" xmlns="http://www.w3.org/2000/svg" xmlns:xlink="http://www.w3.org/1999/xlink">
	<desc>
			Created with Pixso.
	</desc>
	<defs/>
	<path id="path" d="M30.24 13.68L30.22 13.66C30.22 12.54 31.1 11.66 32.22 11.66C33.34 11.66 34.22 12.54 34.22 13.66L34.2 13.68L30.24 13.68ZM22.13 0.01L22.15 0C23.27 0 24.15 0.87 24.15 2C24.15 3.12 23.27 4 22.15 4L22.13 3.98L22.13 0.01Z" fill="#000000" fill-opacity="0" fill-rule="nonzero"/>
	<path id="path" d="M32.22 13.66L32.22 29.5C32.22 30.87 31.09 32 29.7 32L4.51 32C3.12 32 2 30.87 2 29.5L2 4.5C2 3.12 3.12 2 4.51 2L22.15 2" stroke="#FFFFFF" stroke-opacity="0.800000" stroke-width="4.000000" stroke-linejoin="round" stroke-linecap="round"/>
	<path id="path" d="M9.18 15.22L9.15 15.23C8.27 14.53 8.13 13.3 8.82 12.42C9.52 11.54 10.76 11.4 11.64 12.09L11.64 12.12L9.18 15.22ZM29.76 1.69L29.76 1.66C30.41 0.75 31.64 0.55 32.55 1.2C33.46 1.86 33.66 3.08 33.01 4L32.98 4L29.76 1.69Z" fill="#000000" fill-opacity="0" fill-rule="nonzero"/>
	<path id="path" d="M10.39 13.66L18.79 20.33L31.38 2.83" stroke="#FFFFFF" stroke-opacity="0.800000" stroke-width="4.000000" stroke-linejoin="round" stroke-linecap="round"/>
</svg>
