<svg width="100.000000" height="100.000000" viewBox="0 0 100 100" fill="none" xmlns="http://www.w3.org/2000/svg" xmlns:xlink="http://www.w3.org/1999/xlink">
	<desc>
			Created with Pixso.
	</desc>
	<defs>
		<clipPath id="clip99_17">
			<rect id="experience" width="50.000000" height="53.750000" transform="translate(25.000000 23.000000)" fill="white" fill-opacity="0"/>
		</clipPath>
	</defs>
	<rect id="Rectangle 50" width="100.000000" height="100.000000" fill="#5CC4DF" fill-opacity="1.000000"/>
	<g clip-path="url(#clip99_17)">
		<path id="Worker.svg" d="M73.75 50.5L26.25 50.5C25.41 50.5 25 50.08 25 49.25L25 44.25L27.5 44.25L27.5 48L72.5 48L72.5 44.25L75 44.25L75 49.25C75 50.08 74.58 50.5 73.75 50.5ZM68.75 43C68.84 40.15 68.22 37.48 66.88 34.97C65.54 32.46 63.66 30.46 61.25 28.96L61.25 34.25L58.75 34.25L58.75 26.75C58.74 26.27 58.95 25.91 59.36 25.67C59.76 25.42 60.18 25.42 60.6 25.64C67.66 29.52 71.25 35.36 71.25 43L71.25 45.5L68.75 45.5L68.75 43ZM53.75 25.5L46.25 25.5L46.25 38L43.75 38L43.75 24.25C43.75 23.41 44.16 23 45 23L55 23C55.83 23 56.25 23.41 56.25 24.25L56.25 38L53.75 38L53.75 25.5ZM38.75 28.98C36.35 30.5 34.49 32.51 33.16 35C31.82 37.5 31.18 40.16 31.25 43L31.25 45.5L28.75 45.5L28.75 43C28.75 35.42 32.33 29.6 39.39 25.66C39.8 25.42 40.22 25.42 40.63 25.67C41.04 25.91 41.24 26.27 41.25 26.75L41.25 34.25L38.75 34.25L38.75 28.98ZM50 64.25C48.5 64.24 47.07 63.96 45.69 63.38C44.31 62.81 43.1 62 42.04 60.95C40.99 59.89 40.18 58.68 39.61 57.3C39.03 55.92 38.75 54.49 38.75 53L41.25 53C41.25 54.16 41.47 55.27 41.91 56.34C42.36 57.42 42.99 58.36 43.81 59.18C44.63 60 45.57 60.63 46.65 61.08C47.72 61.52 48.83 61.75 50 61.75C51.16 61.75 52.27 61.52 53.34 61.08C54.42 60.63 55.36 60 56.18 59.18C57 58.36 57.63 57.42 58.08 56.34C58.52 55.27 58.75 54.16 58.75 53L61.25 53C61.24 54.49 60.96 55.92 60.38 57.3C59.81 58.68 59 59.89 57.95 60.95C56.89 62 55.68 62.81 54.3 63.38C52.92 63.96 51.49 64.24 50 64.25ZM28.75 55.5L32.91 55.5C33.58 55.5 33.99 55.82 34.13 56.48C34.54 58.37 35.27 60.12 36.32 61.75C36.68 62.31 36.63 62.83 36.15 63.31L33.2 66.26L36.74 69.79L39.68 66.84C40.16 66.37 40.68 66.31 41.24 66.67C42.87 67.72 44.62 68.45 46.51 68.86C47.17 69 47.5 69.41 47.5 70.08L47.5 74.25L52.5 74.25L52.5 70.08C52.49 69.41 52.82 69 53.48 68.86C55.37 68.45 57.12 67.72 58.75 66.67C59.31 66.31 59.83 66.37 60.31 66.85L63.25 69.8L66.79 66.26L63.84 63.31C63.36 62.83 63.31 62.31 63.67 61.75C64.72 60.12 65.45 58.37 65.86 56.48C66 55.82 66.41 55.5 67.08 55.5L71.25 55.5L71.25 53L73.75 53L73.75 56.75C73.75 57.58 73.33 58 72.5 58L68.06 58C67.65 59.48 67.06 60.89 66.3 62.23L69.44 65.37C69.69 65.62 69.81 65.91 69.81 66.26C69.81 66.6 69.69 66.89 69.44 67.13L64.14 72.45C63.55 73.03 62.96 73.03 62.37 72.45L59.23 69.3C57.89 70.06 56.48 70.65 55 71.06L55 75.5C55 76.33 54.58 76.75 53.75 76.75L46.25 76.75C45.41 76.75 45 76.33 45 75.5L45 71.06C43.51 70.65 42.1 70.06 40.76 69.29L37.62 72.44C37.03 72.99 36.44 72.99 35.85 72.44L30.55 67.13C30.3 66.89 30.18 66.6 30.18 66.26C30.18 65.91 30.3 65.62 30.55 65.37L33.69 62.23C32.93 60.89 32.34 59.48 31.93 58L27.5 58C26.66 58 26.25 57.58 26.25 56.75L26.25 53L28.75 53L28.75 55.5Z" fill="#031232" fill-opacity="1.000000" fill-rule="nonzero"/>
	</g>
</svg>
