<svg width="50.000000" height="50.000000" viewBox="0 0 50 50" fill="none" xmlns="http://www.w3.org/2000/svg" xmlns:xlink="http://www.w3.org/1999/xlink">
	<desc>
	</desc>
	<defs>
		<clipPath id="clip107_9">
			<rect id="icon-mail" width="50.000000" height="50.000000" fill="white" fill-opacity="0"/>
		</clipPath>
	</defs>
	<g clip-path="url(#clip107_9)">
		<circle id="circle" cx="25.000000" cy="25.000000" r="25.000000" fill="#0788AA" fill-opacity="1.000000"/>
		<path id="path" d="M14.68 18.78L23.59 24.37C23.89 24.55 24.28 24.64 24.67 24.64C25.06 24.64 25.45 24.55 25.75 24.37L34.66 18.78C35.25 18.41 35.8 17 34.73 17L14.61 17C13.55 17 14.1 18.41 14.68 18.78ZM34.93 21.83L25.75 27.42C25.34 27.67 25.06 27.7 24.67 27.7C24.28 27.7 24 27.67 23.59 27.42C23.19 27.17 15.11 22.23 14.45 21.83C13.99 21.55 14 21.88 14 22.14L14 32.25C14 32.84 14.67 33.64 15.18 33.64L34.21 33.64C34.72 33.64 35.4 32.84 35.4 32.25L35.4 22.14C35.4 21.88 35.4 21.55 34.93 21.83Z" fill="#15184E" fill-opacity="1.000000" fill-rule="nonzero"/>
	</g>
</svg>
