<svg width="40.000000" height="40.000000" viewBox="0 0 40 40" fill="none" xmlns="http://www.w3.org/2000/svg" xmlns:xlink="http://www.w3.org/1999/xlink">
	<defs>
		<clipPath id="clip148_1">
			<rect id="point" width="40.000000" height="40.000004" fill="white" fill-opacity="0"/>
		</clipPath>
	</defs>
	<g clip-path="url(#clip148_1)">
		<circle id="circle" cx="20.000000" cy="20.000000" r="20.000002" fill="#0788AA" fill-opacity="1.000000"/>
		<path id="path" d="M20 10.66C16.13 10.66 13 13.8 13 17.66C13 22.16 16.38 24.12 17.12 25.02C18.92 27.17 19.02 29.33 20 29.33C20.97 29.33 21.07 27.17 22.87 25.02C23.61 24.12 27 22.16 27 17.66C27 13.8 23.86 10.66 20 10.66ZM20 22.33C17.42 22.33 15.33 20.24 15.33 17.66C15.33 15.08 17.42 13 20 13C22.57 13 24.66 15.08 24.66 17.66C24.66 20.24 22.57 22.33 20 22.33ZM20 15.33C18.71 15.33 17.66 16.37 17.66 17.66C17.66 18.95 18.71 20 20 20C21.28 20 22.33 18.95 22.33 17.66C22.33 16.37 21.28 15.33 20 15.33Z" fill="#15184E" fill-opacity="1.000000" fill-rule="nonzero"/>
		<circle id="ellipse" cx="20.000000" cy="17.666656" r="0.777778" fill="#15184E" fill-opacity="1.000000"/>
	</g>
</svg>
