<svg width="40.000000" height="40.000000" viewBox="0 0 40 40" fill="none" xmlns="http://www.w3.org/2000/svg" xmlns:xlink="http://www.w3.org/1999/xlink">
	<desc>
			Created with Pixso.
	</desc>
	<defs>
		<clipPath id="clip187_11">
			<rect id="icon-phone-rev" width="40.000000" height="40.000000" fill="white" fill-opacity="0"/>
		</clipPath>
	</defs>
	<g clip-path="url(#clip187_11)">
		<ellipse id="circle" cx="20.000000" cy="20.000000" rx="20.000002" ry="20.000000" fill="#15184D" fill-opacity="1.000000"/>
		<path id="path" d="M19.97 18.73C19.97 18.88 20.1 19 20.25 19C20.56 19 20.81 19.25 20.81 19.56C20.81 19.71 20.93 19.83 21.08 19.83C21.23 19.83 21.36 19.71 21.36 19.56C21.36 18.95 20.86 18.46 20.25 18.46C20.1 18.46 19.97 18.58 19.97 18.73ZM24.42 19.83C24.57 19.83 24.69 19.71 24.69 19.56C24.69 17.14 22.7 15.16 20.25 15.16C20.1 15.16 19.97 15.28 19.97 15.43C19.97 15.58 20.1 15.7 20.25 15.7C22.4 15.7 24.15 17.43 24.15 19.56C24.15 19.71 24.27 19.83 24.42 19.83Z" fill="#0788AA" fill-opacity="1.000000" fill-rule="nonzero"/>
		<path id="path" d="M22.48 19.56C22.48 19.71 22.6 19.83 22.75 19.83C22.9 19.83 23.03 19.71 23.03 19.56C23.03 18.05 21.78 16.82 20.25 16.82C20.1 16.82 19.97 16.94 19.97 17.08C19.97 17.23 20.1 17.35 20.25 17.35C21.48 17.35 22.48 18.35 22.48 19.56ZM20.25 13.51C20.1 13.51 19.97 13.64 19.97 13.78C19.97 13.93 20.1 14.05 20.25 14.05C23.32 14.05 25.82 16.53 25.82 19.56C25.82 19.71 25.94 19.83 26.09 19.83C26.24 19.83 26.37 19.71 26.37 19.56C26.37 16.23 23.62 13.51 20.25 13.51ZM22.92 22.41L22.56 22.6C21.95 22.92 21.48 23.82 20.74 23.14L18.8 21.19L17.12 19.56C16.27 18.5 17.22 18.24 17.55 17.64L17.74 17.29C17.96 16.89 18.04 16.44 17.97 16C17.91 15.55 17.7 15.14 17.38 14.81C16.98 14.42 16.45 14.2 15.88 14.2C15.32 14.2 14.79 14.42 14.39 14.81L14.25 14.95C13.51 15.68 13.43 16.94 14.01 18.5C14.56 19.98 15.66 21.59 17.12 23.02C19.33 25.21 21.8 26.48 23.57 26.48C24.26 26.48 24.86 26.28 25.28 25.86L25.42 25.72C25.82 25.33 26.04 24.81 26.04 24.24C26.04 23.69 25.81 23.15 25.42 22.76C24.76 22.11 23.73 21.97 22.92 22.41Z" fill="#0788AA" fill-opacity="1.000000" fill-rule="nonzero"/>
	</g>
</svg>
