<svg width="144.000000" height="144.000000" viewBox="0 0 144 144" fill="none" xmlns="http://www.w3.org/2000/svg" xmlns:xlink="http://www.w3.org/1999/xlink">
	<desc>
			Created with Pixso.
	</desc>
	<defs>
		<clipPath id="clip143_2">
			<rect id="icons-telegram" width="144.000000" height="144.000000" fill="white" fill-opacity="0"/>
		</clipPath>
	</defs>
	<g clip-path="url(#clip143_2)">
		<path id="path" d="M72 12C68.06 12 64.15 12.38 60.29 13.15C56.43 13.92 52.67 15.05 49.03 16.56C45.39 18.07 41.94 19.92 38.66 22.11C35.39 24.3 32.35 26.78 29.57 29.57C26.78 32.35 24.3 35.39 22.11 38.66C19.92 41.94 18.07 45.39 16.56 49.03C15.05 52.67 13.92 56.43 13.15 60.29C12.38 64.15 12 68.06 12 72C12 75.93 12.38 79.84 13.15 83.7C13.92 87.56 15.05 91.32 16.56 94.96C18.07 98.6 19.92 102.05 22.11 105.33C24.3 108.61 26.78 111.64 29.57 114.42C32.35 117.21 35.39 119.69 38.66 121.88C41.94 124.07 45.39 125.92 49.03 127.43C52.67 128.94 56.43 130.07 60.29 130.84C64.15 131.61 68.06 132 72 132C75.93 132 79.84 131.61 83.7 130.84C87.56 130.07 91.32 128.94 94.96 127.43C98.6 125.92 102.05 124.07 105.33 121.88C108.61 119.69 111.64 117.21 114.42 114.42C117.21 111.64 119.69 108.61 121.88 105.33C124.07 102.05 125.92 98.6 127.43 94.96C128.94 91.32 130.07 87.56 130.84 83.7C131.61 79.84 132 75.93 132 72C132 68.06 131.61 64.15 130.84 60.29C130.07 56.43 128.94 52.67 127.43 49.03C125.92 45.39 124.07 41.94 121.88 38.66C119.69 35.39 117.21 32.35 114.42 29.57C111.64 26.78 108.61 24.3 105.33 22.11C102.05 19.92 98.6 18.07 94.96 16.56C91.32 15.05 87.56 13.92 83.7 13.15C79.84 12.38 75.93 12 72 12Z" fill="#29B6F6" fill-opacity="1.000000" fill-rule="nonzero"/>
		<path id="path" d="M101.85 45L90.61 102.37C90.61 102.37 90.12 105 86.87 105C85.14 105 84.25 104.17 84.25 104.17L59.91 83.97L48 77.97L32.72 73.91C32.72 73.91 30 73.12 30 70.87C30 69 32.79 68.1 32.79 68.1L96.74 42.7C96.74 42.69 98.7 41.99 100.12 42C101 42 102 42.37 102 43.5C102 44.25 101.85 45 101.85 45Z" fill="#FFFFFF" fill-opacity="1.000000" fill-rule="nonzero"/>
		<path id="path" d="M69 91.51L58.72 101.63C58.72 101.63 58.27 101.98 57.67 101.99C57.47 102 57.24 101.97 57.02 101.86L59.91 83.97L69 91.51Z" fill="#B0BEC5" fill-opacity="1.000000" fill-rule="nonzero"/>
		<path id="path" d="M89.69 54.58C89.18 53.92 88.24 53.8 87.58 54.3L48 78C48 78 54.31 95.67 55.28 98.73C56.24 101.79 57.02 101.87 57.02 101.87L59.91 83.97L89.4 56.68C90.06 56.18 90.19 55.24 89.69 54.58Z" fill="#CFD8DC" fill-opacity="1.000000" fill-rule="nonzero"/>
	</g>
</svg>
