<svg width="50.000000" height="50.000000" viewBox="0 0 50 50" fill="none" xmlns="http://www.w3.org/2000/svg" xmlns:xlink="http://www.w3.org/1999/xlink">
	<desc>
			Created with Pixso.
	</desc>
	<defs>
		<clipPath id="clip107_2">
			<rect id="icon-phone" width="50.000000" height="50.000000" fill="white" fill-opacity="0"/>
		</clipPath>
	</defs>
	<g clip-path="url(#clip107_2)">
		<ellipse id="circle" cx="24.999939" cy="25.000000" rx="25.000002" ry="25.000000" fill="#0788AA" fill-opacity="1.000000"/>
		<path id="path" d="M24.92 23.16C24.92 23.39 25.11 23.58 25.35 23.58C25.84 23.58 26.23 23.97 26.23 24.45C26.23 24.68 26.42 24.87 26.66 24.87C26.89 24.87 27.08 24.68 27.08 24.45C27.08 23.5 26.31 22.73 25.35 22.73C25.11 22.73 24.92 22.92 24.92 23.16ZM31.87 24.87C32.11 24.87 32.3 24.68 32.3 24.45C32.3 20.66 29.18 17.57 25.35 17.57C25.11 17.57 24.92 17.76 24.92 18C24.92 18.23 25.11 18.42 25.35 18.42C28.71 18.42 31.45 21.13 31.45 24.45C31.45 24.68 31.64 24.87 31.87 24.87Z" fill="#15184D" fill-opacity="1.000000" fill-rule="nonzero"/>
		<path id="path" d="M28.84 24.45C28.84 24.68 29.03 24.87 29.27 24.87C29.5 24.87 29.69 24.68 29.69 24.45C29.69 22.08 27.75 20.15 25.35 20.15C25.11 20.15 24.92 20.34 24.92 20.58C24.92 20.81 25.11 21 25.35 21C27.28 21 28.84 22.55 28.84 24.45ZM25.35 15C25.11 15 24.92 15.18 24.92 15.42C24.92 15.65 25.11 15.84 25.35 15.84C30.15 15.84 34.06 19.7 34.06 24.45C34.06 24.68 34.25 24.87 34.49 24.87C34.72 24.87 34.91 24.68 34.91 24.45C34.91 19.23 30.62 15 25.35 15ZM29.52 28.9L28.96 29.2C28.02 29.71 27.28 31.11 26.12 30.05L23.08 27L20.45 24.45C19.13 22.78 20.61 22.38 21.13 21.45L21.43 20.9C21.77 20.27 21.9 19.57 21.79 18.87C21.69 18.17 21.37 17.53 20.86 17.03C20.24 16.41 19.41 16.07 18.53 16.07C17.64 16.07 16.81 16.41 16.19 17.03L15.97 17.25C14.82 18.38 14.68 20.35 15.59 22.78C16.45 25.1 18.18 27.62 20.45 29.86C23.92 33.29 27.77 35.26 30.54 35.26C31.63 35.26 32.56 34.95 33.22 34.3L33.44 34.08C34.06 33.47 34.4 32.65 34.41 31.77C34.4 30.91 34.05 30.06 33.44 29.46C32.41 28.44 30.8 28.21 29.52 28.9Z" fill="#15184D" fill-opacity="1.000000" fill-rule="nonzero"/>
	</g>
</svg>
