<svg width="50.000000" height="50.000000" viewBox="0 0 50 50" fill="none" xmlns="http://www.w3.org/2000/svg" xmlns:xlink="http://www.w3.org/1999/xlink">
	<desc>
			Created with Pixso.
	</desc>
	<defs/>
	<circle id="Oval 7" cx="25.000000" cy="25.000000" r="25.000000" fill="#0788AA" fill-opacity="1.000000"/>
	<path id="path" d="M34.34 14.63C31.92 12.19 28.99 10.98 25.54 11C18.69 11 13.1 16.55 13.1 23.38C13.1 25.57 13.67 27.69 14.75 29.57L13 36L19.59 34.27C21.45 35.28 23.43 35.78 25.54 35.78C32.4 35.78 37.99 30.22 38 23.39C38 19.97 36.78 17.04 34.34 14.63ZM25.54 33.68C23.65 33.68 21.9 33.2 20.27 32.25L19.9 32.02L15.98 33.04L17.03 29.24L16.78 28.85C15.73 27.18 15.2 25.35 15.2 23.37C15.2 17.71 19.84 13.09 25.55 13.09C28.41 13.08 30.85 14.09 32.86 16.1C34.89 18.11 35.9 20.54 35.89 23.38C35.88 29.07 31.24 33.68 25.54 33.68ZM31.22 25.97C30.91 25.82 29.38 25.07 29.09 24.97C28.81 24.86 28.6 24.81 28.39 25.12C28.19 25.43 27.59 26.13 27.41 26.33C27.23 26.54 27.05 26.56 26.74 26.41C26.43 26.25 25.42 25.93 24.24 24.87C23.31 24.05 22.69 23.03 22.51 22.73C22.33 22.42 22.49 22.25 22.64 22.1C22.78 21.96 22.95 21.73 23.11 21.56C23.26 21.38 23.32 21.25 23.42 21.04C23.52 20.83 23.47 20.65 23.39 20.5C23.32 20.34 22.7 18.82 22.43 18.2C22.18 17.59 21.93 17.68 21.74 17.67C21.56 17.66 21.35 17.66 21.14 17.66C20.81 17.67 20.53 17.8 20.31 18.04C20.02 18.35 19.22 19.1 19.22 20.63C19.22 22.16 20.34 23.62 20.5 23.83C20.65 24.04 22.68 27.16 25.81 28.51C26.54 28.83 27.12 29.02 27.58 29.16C28.32 29.4 29 29.36 29.53 29.28C30.13 29.19 31.37 28.53 31.63 27.81C31.89 27.09 31.89 26.47 31.81 26.34C31.74 26.21 31.53 26.13 31.22 25.97Z" fill="#15184E" fill-opacity="1.000000" fill-rule="nonzero"/>
	<path id="path" d="M25.54 11C18.69 11 13.1 16.55 13.1 23.38C13.1 25.57 13.67 27.69 14.75 29.57L13 36L19.59 34.27C21.45 35.28 23.43 35.78 25.54 35.78C32.4 35.78 37.99 30.22 38 23.39C38 19.97 36.78 17.04 34.34 14.63C31.92 12.19 28.99 10.98 25.54 11ZM20.27 32.25L19.9 32.02L15.98 33.04L17.03 29.24L16.78 28.85C15.73 27.18 15.2 25.35 15.2 23.37C15.2 17.71 19.84 13.09 25.55 13.09C28.41 13.08 30.85 14.09 32.86 16.1C34.89 18.11 35.9 20.54 35.89 23.38C35.88 29.07 31.24 33.68 25.54 33.68C23.65 33.68 21.9 33.2 20.27 32.25ZM29.09 24.97C28.81 24.86 28.6 24.81 28.39 25.12C28.19 25.43 27.59 26.13 27.41 26.33C27.23 26.54 27.05 26.56 26.74 26.41C26.43 26.25 25.42 25.93 24.24 24.87C23.31 24.05 22.69 23.03 22.51 22.73C22.33 22.42 22.49 22.25 22.64 22.1C22.78 21.96 22.95 21.73 23.11 21.56C23.26 21.38 23.32 21.25 23.42 21.04C23.52 20.83 23.47 20.65 23.39 20.5C23.32 20.34 22.7 18.82 22.43 18.2C22.18 17.59 21.93 17.68 21.74 17.67C21.56 17.66 21.35 17.66 21.14 17.66C20.81 17.67 20.53 17.8 20.31 18.04C20.02 18.35 19.22 19.1 19.22 20.63C19.22 22.16 20.34 23.62 20.5 23.83C20.65 24.04 22.68 27.16 25.81 28.51C26.54 28.83 27.12 29.02 27.58 29.16C28.32 29.4 29 29.36 29.53 29.28C30.13 29.19 31.37 28.53 31.63 27.81C31.89 27.09 31.89 26.47 31.81 26.34C31.74 26.21 31.53 26.13 31.22 25.97C30.91 25.82 29.38 25.07 29.09 24.97Z" stroke="#15184E" stroke-opacity="1.000000" stroke-width="1.000000"/>
</svg>
