<svg width="120.000015" height="30.927837" viewBox="0 0 120 30.9278" fill="none" xmlns="http://www.w3.org/2000/svg" xmlns:xlink="http://www.w3.org/1999/xlink">
	<desc>
			Created with Pixso.
	</desc>
	<defs>
		<clipPath id="clip18_41">
			<rect id="logo-name" width="120.000015" height="30.927835" fill="white" fill-opacity="0"/>
		</clipPath>
		<linearGradient x1="3.092789" y1="15.463898" x2="124.329903" y2="15.463898" id="paint_linear_18_42_0" gradientUnits="userSpaceOnUse">
			<stop stop-color="#3437FF"/>
			<stop offset="1.000000" stop-color="#7578FE"/>
		</linearGradient>
	</defs>
	<g clip-path="url(#clip18_41)">
		<path id="path" d="M1.77 25.43L1.77 4.17L0 4.17L0 0L6.16 0L6.16 4.17L4.39 4.17L4.39 25.43L1.77 25.43ZM6.58 30.92L6.58 21.41L6.92 21.41C7.14 21.26 7.35 21.01 7.53 20.66C7.73 20.28 7.9 19.78 8.06 19.15C8.21 18.52 8.35 17.74 8.48 16.79C8.61 15.85 8.71 14.73 8.8 13.43C8.89 12.11 8.96 10.6 9.02 8.88L9.34 0L14.83 0L14.83 21.41L16.16 21.41L16.16 30.92L14.44 30.92L14.31 25.43L8.52 25.43L8.38 30.92L6.58 30.92ZM9.38 21.41L12.4 21.41L12.4 3.98L11.31 3.98L11.17 9.45C11.13 11.25 11.05 12.77 10.96 14.03C10.87 15.29 10.76 16.33 10.64 17.17C10.52 17.99 10.39 18.66 10.26 19.18C10.12 19.7 9.97 20.13 9.82 20.47C9.67 20.8 9.53 21.12 9.38 21.41ZM21.07 25.43L21.07 0L26.53 0L26.53 4.17L23.68 4.17L23.68 25.43L21.07 25.43ZM27.81 25.43L27.81 0L29.87 0L29.87 14.56L32.88 0L34.57 0L34.57 25.43L32.48 25.43L32.48 10.61L29.4 25.43L27.81 25.43ZM35.75 30.92L35.75 21.41L36.09 21.41C36.31 21.26 36.52 21.01 36.7 20.66C36.89 20.28 37.07 19.78 37.22 19.15C37.38 18.52 37.52 17.74 37.65 16.79C37.77 15.85 37.88 14.73 37.97 13.43C38.05 12.11 38.13 10.6 38.19 8.88L38.51 0L44 0L44 21.41L45.32 21.41L45.32 30.92L43.61 30.92L43.47 25.43L37.69 25.43L37.54 30.92L35.75 30.92ZM38.55 21.41L41.57 21.41L41.57 3.98L40.47 3.98L40.34 9.45C40.29 11.25 40.22 12.77 40.12 14.03C40.04 15.29 39.93 16.33 39.8 17.17C39.69 17.99 39.56 18.66 39.42 19.18C39.29 19.7 39.14 20.13 38.99 20.47C38.84 20.8 38.7 21.12 38.55 21.41ZM46.47 25.43L46.47 0L50.43 0C51.14 0 51.72 0.29 52.18 0.87C52.63 1.44 52.97 2.28 53.2 3.39C53.42 4.47 53.53 5.8 53.53 7.37C53.53 9.34 53.38 10.85 53.08 11.9C52.78 12.92 52.37 13.63 51.86 14.03C51.34 14.43 50.76 14.63 50.12 14.63L49.07 14.63L49.07 25.43L46.47 25.43ZM49.07 10.7L49.95 10.7C50.27 10.7 50.51 10.58 50.68 10.33C50.84 10.07 50.95 9.7 51 9.19C51.06 8.69 51.08 8.05 51.08 7.28C51.08 6.63 51.06 6.07 51.01 5.58C50.97 5.08 50.87 4.68 50.71 4.39C50.54 4.1 50.28 3.95 49.93 3.95L49.07 3.95L49.07 10.7ZM53.98 25.43L56.21 0L59.18 0L61.38 25.43L58.98 25.43L58.58 20.06L56.85 20.06L56.44 25.43L53.98 25.43ZM57.08 16.7L58.34 16.7L57.71 6.78L57.08 16.7ZM62.57 25.43L62.57 0L65.65 0C66.15 0 66.63 0.08 67.07 0.25C67.53 0.41 67.93 0.74 68.28 1.22C68.63 1.68 68.91 2.35 69.1 3.23C69.3 4.09 69.41 5.23 69.41 6.65C69.41 7.68 69.33 8.55 69.19 9.26C69.05 9.95 68.85 10.5 68.59 10.92C68.34 11.34 68.03 11.62 67.67 11.77C68.13 11.9 68.51 12.22 68.82 12.74C69.13 13.25 69.37 13.93 69.52 14.78C69.69 15.64 69.77 16.68 69.77 17.89C69.77 19.21 69.69 20.35 69.52 21.31C69.37 22.26 69.14 23.03 68.84 23.64C68.54 24.25 68.16 24.7 67.72 24.99C67.28 25.28 66.77 25.43 66.2 25.43L62.57 25.43ZM65.18 21.5L65.73 21.5C66.31 21.5 66.7 21.19 66.91 20.56C67.14 19.93 67.25 19.01 67.25 17.8C67.25 16.84 67.2 16.07 67.1 15.51C67.01 14.94 66.85 14.53 66.62 14.28C66.4 14.01 66.1 13.87 65.72 13.87L65.18 13.87L65.18 21.5ZM65.18 10.17L65.69 10.17C66.09 10.17 66.39 10.04 66.59 9.79C66.8 9.52 66.93 9.13 67 8.63C67.08 8.13 67.12 7.52 67.12 6.81C67.12 6.14 67.06 5.58 66.94 5.14C66.84 4.68 66.67 4.34 66.45 4.11C66.23 3.88 65.96 3.76 65.63 3.76L65.18 3.76L65.18 10.17ZM70.37 25.43L70.37 21.47C70.7 21.47 70.96 21.43 71.17 21.35C71.37 21.24 71.53 21.01 71.65 20.66C71.76 20.3 71.86 19.76 71.92 19.02C71.99 18.29 72.05 17.31 72.08 16.07C72.13 14.84 72.19 13.27 72.26 11.36L72.64 0L78.89 0L78.89 25.43L76.3 25.43L76.3 4.3L75 4.3L74.77 12.43C74.7 14.52 74.63 16.33 74.56 17.86C74.49 19.37 74.38 20.63 74.23 21.66C74.08 22.69 73.86 23.49 73.56 24.08C73.26 24.64 72.86 25.03 72.35 25.24C71.83 25.45 71.17 25.51 70.37 25.43ZM80.74 25.43L80.74 0L82.8 0L82.8 14.56L85.81 0L87.5 0L87.5 25.43L85.4 25.43L85.4 10.61L82.33 25.43L80.74 25.43ZM89.34 25.43L89.34 0L91.94 0L91.94 10.07L92.21 10.07L93.94 0L96.53 0L94.38 11.93L96.61 25.43L93.93 25.43L92.21 14.34L91.94 14.34L91.94 25.43L89.34 25.43ZM97.06 25.43L99.29 0L102.26 0L104.46 25.43L102.06 25.43L101.67 20.06L99.93 20.06L99.52 25.43L97.06 25.43ZM100.17 16.7L101.42 16.7L100.79 6.78L100.17 16.7ZM105.71 16.04L105.71 12.77L109.49 12.77L109.49 16.04L105.71 16.04ZM111.23 25.43L111.44 0L114.23 0L115.53 14.78L116.93 0L119.62 0L119.83 25.43L117.98 25.43L117.76 8.5L116.39 25.43L114.74 25.43L113.29 8.38L113.11 25.43L111.23 25.43Z" fill="url(#paint_linear_18_42_0)" fill-opacity="1.000000" fill-rule="nonzero"/>
	</g>
</svg>
