<svg width="75.000000" height="75.000000" viewBox="0 0 75 75" fill="none" xmlns="http://www.w3.org/2000/svg" xmlns:xlink="http://www.w3.org/1999/xlink">
	<desc>
			Created with Pixso.
	</desc>
	<defs>
		<clipPath id="clip18_8">
			<rect id="logo-desktop" width="75.000000" height="75.000000" fill="white" fill-opacity="0"/>
		</clipPath>
		<linearGradient x1="9.213760" y1="39.345734" x2="76.569412" y2="35.345695" id="paint_linear_18_9_0" gradientUnits="userSpaceOnUse">
			<stop stop-color="#C0C6FB"/>
			<stop offset="1.000000" stop-color="#282AFF"/>
		</linearGradient>
		<linearGradient x1="4.744962" y1="39.019947" x2="55.619560" y2="33.167828" id="paint_linear_18_10_0" gradientUnits="userSpaceOnUse">
			<stop stop-color="#C1C7FB"/>
			<stop offset="1.000000" stop-color="#1314FF"/>
		</linearGradient>
	</defs>
	<g clip-path="url(#clip18_8)">
		<path id="path" d="M7.11 19.36C6.1 18.74 5.76 17.4 6.43 16.41C10.43 10.48 16.03 5.82 22.6 3C29.82 -0.11 37.84 -0.83 45.5 0.95C53.16 2.72 60.06 6.9 65.22 12.88C70.38 18.85 73.53 26.33 74.21 34.22C74.9 42.12 73.09 50.03 69.04 56.82C64.99 63.61 58.91 68.93 51.68 72.02C44.44 75.12 36.42 75.82 28.77 74.02C21.82 72.4 15.49 68.79 10.53 63.65C9.71 62.79 9.81 61.41 10.7 60.63C11.58 59.86 12.9 59.96 13.72 60.8C18.09 65.27 23.64 68.42 29.73 69.84C36.51 71.43 43.61 70.81 50.02 68.07C56.42 65.33 61.8 60.62 65.39 54.61C68.97 48.59 70.58 41.59 69.97 34.6C69.36 27.61 66.58 20.99 62.01 15.69C57.44 10.4 51.33 6.7 44.55 5.13C37.77 3.56 30.67 4.2 24.27 6.95C18.52 9.42 13.6 13.48 10.07 18.65C9.4 19.63 8.11 19.96 7.11 19.36Z" fill="url(#paint_linear_18_9_0)" fill-opacity="1.000000" fill-rule="nonzero"/>
		<path id="path" d="M8.15 27.37C7.06 27.43 6.22 28.38 6.27 29.5C6.33 30.61 7.26 31.48 8.36 31.42L20.5 30.82C19.59 31.15 18.98 32.08 19.06 33.11C19.16 34.35 20.23 35.27 21.44 35.18L25.89 34.82L16.1 37.21C14.9 37.5 14.17 38.72 14.47 39.94C14.75 41.06 15.81 41.79 16.91 41.67L26.81 41.67L4.61 44.94C3.3 45.12 2.39 46.36 2.59 47.69C2.78 49.03 4 49.96 5.31 49.77L53.58 42.85C54.65 42.7 55.45 41.86 55.6 40.83C55.63 40.69 55.65 40.54 55.65 40.39C55.69 39.02 54.64 37.88 53.3 37.84L36.2 37.36L51.15 34.01C52.52 33.7 53.37 32.33 53.05 30.93C53.08 30.77 53.08 30.58 53.06 30.41C52.96 29.17 51.9 28.25 50.68 28.34L42.71 28.98C42.97 28.61 43.12 28.16 43.1 27.67C43.04 26.55 42.11 25.69 41.01 25.75L8.15 27.37Z" fill="url(#paint_linear_18_10_0)" fill-opacity="1.000000" fill-rule="evenodd"/>
		<path id="path" d="M49.16 9.9L38.13 9.9C38.13 9.9 38.45 13.41 38.13 14.81C37.81 16.2 37.38 16.62 36.9 17.78L35.68 17.78L35.68 22.41L38.95 22.41L38.95 20.16L47.39 20.16L47.39 22.41L50.57 22.41L50.57 17.78L49.16 17.78L49.16 9.9Z" fill="#A8ADFC" fill-opacity="1.000000" fill-rule="nonzero"/>
		<path id="path" d="M45.3 12.15L41.99 12.15C41.99 12.15 42.03 13.64 41.81 14.76C41.58 15.89 41.33 16.49 41.03 17.6L45.3 17.6L45.3 12.15Z" fill="#0D0F42" fill-opacity="1.000000" fill-rule="nonzero"/>
		<path id="path" d="M22.51 12.97L22.51 9.9L34.86 9.9L34.86 12.97L30.76 12.97L30.76 22.41L26.7 22.41L26.7 12.97L22.51 12.97Z" fill="#A8ADFC" fill-opacity="1.000000" fill-rule="nonzero"/>
		<path id="path" d="M31.5 53.21L34.53 53.21C35.13 53.21 35.62 53.71 35.62 54.32C35.62 54.94 35.13 55.44 34.53 55.44L31.5 55.44L31.5 53.21Z" fill="#A8ADFC" fill-opacity="1.000000" fill-rule="nonzero"/>
		<path id="path" d="M31.5 55.44L34.53 55.44C35.26 55.44 35.86 56.05 35.86 56.8C35.86 57.55 35.26 58.16 34.53 58.16L31.5 58.16L31.5 55.44Z" fill="#A8ADFC" fill-opacity="1.000000" fill-rule="nonzero"/>
		<path id="path" d="M33.32 54.11L34.01 54.11C34.18 54.11 34.31 54.25 34.31 54.42C34.31 54.6 34.18 54.74 34.01 54.74L33.32 54.74L33.32 54.11Z" fill="#3436B4" fill-opacity="1.000000" fill-rule="nonzero"/>
		<path id="path" d="M33.32 56.18L33.92 56.18C34.14 56.18 34.31 56.36 34.31 56.58C34.31 56.81 34.14 56.99 33.92 56.99L33.32 56.99L33.32 56.18Z" fill="#3436B4" fill-opacity="1.000000" fill-rule="nonzero"/>
		<path id="path" d="M42.49 53.21L37.5 53.21C37.5 53.21 37.53 55.01 37.49 56.04C37.49 56.13 37.36 56.31 37.36 56.31L36.81 56.45L36.49 56.45L36.45 58.16L38.35 58.16L39.01 57.39L39.26 56.99L39.47 56.04L39.47 54.47L40.31 54.47L40.31 58.16L42.49 58.38L42.49 53.21Z" fill="#A8ADFC" fill-opacity="1.000000" fill-rule="nonzero"/>
		<path id="path" d="M29.09 53.21L26.69 53.21L24.78 58.16L26.96 58.16L27.23 57.18L28.59 57.18L28.78 58.16L30.96 58.16L29.09 53.21Z" fill="#A8ADFC" fill-opacity="1.000000" fill-rule="nonzero"/>
		<path id="path" d="M27.91 54.29L28.5 55.91L27.32 55.91L27.91 54.29Z" fill="#3436B4" fill-opacity="1.000000" fill-rule="nonzero"/>
		<path id="path" d="M58.65 53.21L56.51 53.21L54.92 59.6L56.74 59.96L56.97 58.92L58.24 58.92L58.47 60.32L60.46 60.59L58.65 53.21Z" fill="#A8ADFC" fill-opacity="1.000000" fill-rule="nonzero"/>
		<path id="path" d="M57.56 54.38L58.11 56.94L57.01 56.94L57.56 54.38Z" fill="#3436B4" fill-opacity="1.000000" fill-rule="nonzero"/>
		<path id="path" d="M50.79 53.25L48.71 53.25L48.71 58.83L50.79 59.1L50.79 56.54L51.93 59.33L54.11 59.55L52.52 56.04L54.33 53.25L52.06 53.25L50.79 55.5L50.79 53.25Z" fill="#A8ADFC" fill-opacity="1.000000" fill-rule="nonzero"/>
		<path id="path" d="M44.94 53.16L43.08 53.16L43.08 58.38L44.62 58.38L46.34 55.68L46.34 58.61L48.16 58.83L48.16 53.16L46.34 53.16L44.94 55.68L44.94 53.16Z" fill="#A8ADFC" fill-opacity="1.000000" fill-rule="nonzero"/>
		<path id="path" d="M22.33 53.21L20.42 53.21L20.42 58.16L22.33 58.07L22.33 56.63L23.47 56.63C24.39 56.63 25.14 55.86 25.14 54.92C25.14 53.97 24.39 53.21 23.47 53.21L22.33 53.21Z" fill="#A8ADFC" fill-opacity="1.000000" fill-rule="evenodd"/>
		<path id="path" d="M19.15 53.16L14.48 53.16C14.48 53.16 14.61 55.46 14.48 56.09C14.34 56.72 14.02 56.72 14.02 56.72L13.43 56.72L13.43 58.74L15.16 58.56L15.16 57.84L18.11 57.84L18.11 58.25L19.83 58.11L19.83 56.72L19.15 56.72L19.15 53.16Z" fill="#A8ADFC" fill-opacity="1.000000" fill-rule="nonzero"/>
		<path id="path" d="M17.15 54.02L16.33 54.02C16.33 54.02 16.33 55.72 16.15 56.07C15.97 56.42 15.97 56.39 15.97 56.39L15.79 56.72L17.15 56.72L17.15 54.02Z" fill="#3436B4" fill-opacity="1.000000" fill-rule="nonzero"/>
		<path id="path" d="M22.24 54.47L23.25 54.47C23.49 54.47 23.69 54.67 23.69 54.92C23.69 55.17 23.49 55.37 23.25 55.37L22.24 55.37L22.24 54.47Z" fill="#3436B4" fill-opacity="1.000000" fill-rule="nonzero"/>
		<path id="path" d="M9.35 53.21L7.35 53.21L7.35 59.64L9.35 59.28L10.89 56.36L10.89 59.01L12.84 58.79L12.84 53.21L10.89 53.21L9.35 56.18L9.35 53.21Z" fill="#A8ADFC" fill-opacity="1.000000" fill-rule="nonzero"/>
		<path id="path" d="M2.99 60.63L2.99 53.21L6.76 53.21L6.76 55.23L5.08 55.23L5.08 60.18L2.99 60.63Z" fill="#A8ADFC" fill-opacity="1.000000" fill-rule="nonzero"/>
	</g>
</svg>
