<svg width="14.000000" height="18.666656" viewBox="0 0 14 18.6667" fill="none" xmlns="http://www.w3.org/2000/svg" xmlns:xlink="http://www.w3.org/1999/xlink">
	<desc>
			Created with Pixso.
	</desc>
	<defs/>
	<path id="path" d="M7 0C3.13 0 0 3.13 0 7C0 11.49 3.38 13.46 4.12 14.35C5.92 16.51 6.02 18.66 7 18.66C7.97 18.66 8.07 16.51 9.87 14.35C10.61 13.46 14 11.49 14 7C14 3.13 10.86 0 7 0ZM7 11.66C4.42 11.66 2.33 9.57 2.33 7C2.33 4.42 4.42 2.33 7 2.33C9.57 2.33 11.66 4.42 11.66 7C11.66 9.57 9.57 11.66 7 11.66ZM7 4.66C5.71 4.66 4.66 5.71 4.66 7C4.66 8.28 5.71 9.33 7 9.33C8.28 9.33 9.33 8.28 9.33 7C9.33 5.71 8.28 4.66 7 4.66Z" fill="#15184E" fill-opacity="1.000000" fill-rule="nonzero"/>
	<circle id="ellipse" cx="7.000000" cy="7.000000" r="0.777778" fill="#15184E" fill-opacity="1.000000"/>
</svg>
