<svg width="100.000000" height="100.000000" viewBox="0 0 100 100" fill="none" xmlns="http://www.w3.org/2000/svg" xmlns:xlink="http://www.w3.org/1999/xlink">
	<desc>
			Created with Pixso.
	</desc>
	<defs>
		<clipPath id="clip99_15">
			<rect id="price" width="60.000000" height="51.195671" transform="translate(20.000000 24.000000)" fill="white" fill-opacity="0"/>
		</clipPath>
	</defs>
	<rect id="Rectangle 49" width="100.000000" height="100.000000" fill="#5CC4DF" fill-opacity="1.000000"/>
	<g clip-path="url(#clip99_15)">
		<path id="P2.svg" d="M80 62.71C80 67.57 70.33 70.2 61.25 70.2C59.41 70.2 57.59 70.1 55.77 69.9C55.42 69.86 55.14 69.71 54.92 69.44C54.71 69.16 54.62 68.86 54.66 68.51C54.69 68.17 54.85 67.89 55.12 67.67C55.4 67.46 55.71 67.37 56.05 67.41C57.78 67.61 59.51 67.7 61.25 67.7C71.16 67.7 77.49 64.74 77.49 62.71L77.49 61.46C77.47 61.12 77.36 60.83 77.14 60.58C73.6 62.79 67.3 63.96 61.25 63.96C60.5 63.96 59.77 63.94 59.05 63.91C58.71 63.89 58.42 63.76 58.19 63.51C57.95 63.25 57.84 62.95 57.86 62.61C57.88 62.26 58.01 61.97 58.26 61.74C58.52 61.51 58.82 61.4 59.16 61.41C59.84 61.44 60.54 61.46 61.25 61.46C71.16 61.46 77.49 58.5 77.49 56.46L77.49 55.22C77.47 54.88 77.36 54.59 77.14 54.34C73.6 56.55 67.3 57.71 61.25 57.71C60.78 57.71 60.31 57.71 59.86 57.69C59.51 57.68 59.22 57.55 58.98 57.3C58.75 57.05 58.63 56.76 58.64 56.41C58.64 56.24 58.68 56.09 58.74 55.93C58.81 55.78 58.91 55.65 59.03 55.53C59.15 55.42 59.29 55.33 59.44 55.27C59.6 55.22 59.76 55.19 59.93 55.2C60.36 55.21 60.8 55.21 61.25 55.22C71.16 55.22 77.49 52.26 77.49 50.22L77.49 48.97C77.47 48.64 77.36 48.35 77.14 48.09C73.6 50.31 67.3 51.47 61.25 51.47C60.43 51.47 59.63 51.45 58.84 51.41C58.5 51.4 58.21 51.26 57.98 51.01C57.74 50.75 57.63 50.45 57.65 50.11C57.67 49.76 57.81 49.48 58.07 49.25C58.32 49.02 58.62 48.91 58.96 48.92C59.71 48.95 60.47 48.97 61.25 48.97C71.16 48.97 77.49 46.01 77.49 43.98L77.49 42.73C77.47 42.4 77.36 42.1 77.14 41.85C73.6 44.06 67.3 45.22 61.25 45.22C59.33 45.23 57.43 45.12 55.53 44.89C55.18 44.86 54.9 44.7 54.68 44.43C54.46 44.16 54.37 43.85 54.41 43.5C54.46 43.15 54.62 42.87 54.89 42.66C55.17 42.45 55.48 42.37 55.83 42.41C57.63 42.63 59.43 42.73 61.25 42.73C71.16 42.73 77.49 39.77 77.49 37.73L77.49 35.37C74.04 37.74 67.5 38.98 61.25 38.98C54.99 38.98 48.45 37.73 44.99 35.37C44.95 35.7 44.81 35.97 44.56 36.19C44.3 36.4 44.01 36.5 43.68 36.48C43.35 36.47 43.07 36.34 42.84 36.1C42.61 35.85 42.5 35.57 42.5 35.24L42.5 31.49C42.5 26.62 52.16 24 61.25 24C70.33 24 80 26.62 80 31.49L80 37.73C79.98 38.68 79.66 39.51 79.05 40.23C79.66 40.95 79.98 41.78 80 42.73L80 43.98C79.98 44.92 79.66 45.75 79.05 46.47C79.66 47.19 79.98 48.02 80 48.97L80 50.22C79.98 51.17 79.66 52 79.05 52.71C79.66 53.43 79.98 54.27 80 55.21L80 56.46C79.98 57.41 79.66 58.24 79.05 58.96C79.66 59.68 79.98 60.51 80 61.46L80 62.71ZM61.25 26.49C51.33 26.49 44.99 29.45 44.99 31.49C44.99 33.52 51.33 36.48 61.25 36.48C71.16 36.48 77.49 33.52 77.49 31.49C77.49 29.45 71.16 26.49 61.25 26.49ZM57.5 56.46C57.5 57.69 57.38 58.91 57.14 60.12C56.9 61.33 56.54 62.5 56.07 63.64C55.6 64.78 55.03 65.86 54.34 66.88C53.66 67.91 52.89 68.85 52.02 69.73C51.15 70.6 50.2 71.38 49.18 72.06C48.15 72.75 47.07 73.32 45.93 73.8C44.8 74.27 43.62 74.63 42.42 74.87C41.21 75.11 39.99 75.23 38.76 75.23C37.53 75.23 36.31 75.11 35.1 74.87C33.89 74.63 32.72 74.28 31.58 73.81C30.44 73.34 29.36 72.76 28.34 72.08C27.31 71.39 26.37 70.62 25.49 69.74C24.62 68.87 23.84 67.93 23.16 66.9C22.48 65.88 21.9 64.8 21.43 63.66C20.95 62.53 20.6 61.35 20.36 60.14C20.12 58.94 20 57.72 20 56.49C19.99 55.25 20.11 54.04 20.35 52.83C20.59 51.62 20.95 50.45 21.42 49.31C21.89 48.17 22.47 47.09 23.15 46.07C23.84 45.04 24.61 44.09 25.48 43.22C26.36 42.35 27.3 41.58 28.33 40.89C29.35 40.21 30.43 39.63 31.57 39.16C32.71 38.69 33.88 38.33 35.09 38.09C36.29 37.85 37.51 37.73 38.75 37.73C39.98 37.73 41.19 37.85 42.4 38.09C43.61 38.33 44.78 38.69 45.91 39.16C47.05 39.63 48.13 40.21 49.15 40.89C50.18 41.57 51.12 42.35 51.99 43.22C52.86 44.09 53.64 45.03 54.33 46.06C55.01 47.08 55.59 48.16 56.06 49.29C56.53 50.43 56.89 51.6 57.13 52.81C57.37 54.01 57.49 55.23 57.5 56.46ZM38.75 40.23C37.68 40.23 36.62 40.33 35.58 40.54C34.53 40.75 33.52 41.06 32.54 41.47C31.55 41.88 30.62 42.38 29.73 42.97C28.85 43.56 28.03 44.24 27.27 44.99C26.52 45.75 25.85 46.57 25.26 47.45C24.67 48.34 24.17 49.28 23.76 50.26C23.35 51.25 23.05 52.26 22.84 53.31C22.63 54.35 22.53 55.41 22.53 56.47C22.53 57.54 22.63 58.59 22.84 59.64C23.05 60.68 23.36 61.7 23.77 62.68C24.18 63.67 24.68 64.6 25.27 65.49C25.86 66.37 26.54 67.19 27.29 67.94C28.04 68.7 28.86 69.37 29.75 69.96C30.64 70.55 31.57 71.05 32.56 71.46C33.54 71.87 34.56 72.18 35.6 72.38C36.65 72.59 37.7 72.69 38.77 72.69C39.83 72.69 40.89 72.59 41.93 72.38C42.98 72.17 43.99 71.86 44.98 71.46C45.96 71.05 46.9 70.55 47.78 69.96C48.67 69.36 49.49 68.69 50.24 67.94C51 67.18 51.67 66.36 52.26 65.48C52.85 64.59 53.35 63.66 53.76 62.67C54.17 61.69 54.48 60.67 54.68 59.63C54.89 58.58 54.99 57.53 54.99 56.46C54.99 55.39 54.89 54.34 54.68 53.29C54.47 52.25 54.16 51.23 53.75 50.25C53.34 49.26 52.84 48.33 52.25 47.44C51.65 46.56 50.98 45.74 50.23 44.98C49.47 44.23 48.65 43.56 47.77 42.97C46.88 42.37 45.94 41.87 44.96 41.47C43.97 41.06 42.96 40.75 41.91 40.54C40.87 40.33 39.81 40.23 38.75 40.23ZM42.21 58.17L36.12 58.17L36.12 59.97L42.21 59.97L42.21 62.41L36.12 62.41L36.12 66.58L33.68 66.58L33.68 62.41L31.24 62.41L31.24 59.97L33.68 59.97L33.68 58.17L31.24 58.17L31.24 55.73L33.68 55.73L33.68 46.78L42.21 46.78C42.86 46.78 43.48 46.91 44.08 47.15C44.67 47.4 45.2 47.75 45.66 48.21C46.12 48.67 46.47 49.2 46.72 49.79C46.96 50.39 47.09 51.01 47.09 51.66L47.09 53.3C47.09 53.94 46.96 54.56 46.72 55.16C46.47 55.76 46.12 56.28 45.66 56.74C45.2 57.2 44.67 57.55 44.08 57.8C43.48 58.05 42.86 58.17 42.21 58.17ZM44.65 51.66C44.65 51.33 44.59 51.02 44.46 50.72C44.34 50.43 44.16 50.16 43.94 49.93C43.71 49.71 43.44 49.53 43.14 49.41C42.85 49.28 42.54 49.22 42.21 49.22L36.12 49.22L36.12 55.73L42.21 55.73C42.54 55.73 42.85 55.67 43.14 55.55C43.44 55.42 43.71 55.25 43.94 55.02C44.16 54.79 44.34 54.53 44.46 54.23C44.59 53.93 44.65 53.62 44.65 53.3L44.65 51.66Z" fill="#031232" fill-opacity="1.000000" fill-rule="nonzero"/>
	</g>
</svg>
