<svg width="100.000000" height="100.000000" viewBox="0 0 100 100" fill="none" xmlns="http://www.w3.org/2000/svg" xmlns:xlink="http://www.w3.org/1999/xlink">
	<desc>
			Created with Pixso.
	</desc>
	<defs>
		<clipPath id="clip99_13">
			<rect id="quality" width="50.000000" height="74.761902" transform="translate(24.000000 12.999878) rotate(-1.434692)" fill="white" fill-opacity="0"/>
		</clipPath>
	</defs>
	<rect id="Rectangle 48" width="100.000000" height="100.000000" fill="#5CC4DF" fill-opacity="1.000000"/>
	<g clip-path="url(#clip99_13)">
		<path id="P3.svg" d="M57.73 60.95L57.73 68.43L67.18 68.43C67.6 68.43 67.99 68.51 68.38 68.67C68.76 68.82 69.1 69.05 69.39 69.34C69.68 69.63 69.91 69.97 70.07 70.35C70.23 70.73 70.31 71.13 70.31 71.54L70.31 76.21C70.72 76.21 71.12 76.29 71.5 76.45C71.88 76.61 72.22 76.83 72.51 77.13C72.81 77.42 73.03 77.75 73.19 78.14C73.35 78.52 73.43 78.92 73.43 79.33L73.43 87.12L26.41 87.12L26.41 79.33C26.41 78.92 26.49 78.52 26.65 78.14C26.81 77.76 27.03 77.42 27.33 77.13C27.62 76.84 27.96 76.61 28.34 76.45C28.72 76.3 29.12 76.22 29.53 76.22L29.53 71.54C29.54 71.13 29.62 70.73 29.77 70.35C29.93 69.97 30.16 69.63 30.45 69.34C30.75 69.05 31.08 68.82 31.47 68.67C31.85 68.51 32.25 68.43 32.66 68.43L42.11 68.43L42.11 60.95C41.18 60.64 40.27 60.28 39.38 59.86C38.49 59.45 37.62 58.99 36.79 58.47C35.95 57.95 35.15 57.39 34.38 56.78C33.61 56.17 32.88 55.52 32.19 54.82C31.5 54.12 30.85 53.39 30.24 52.62C29.64 51.85 29.08 51.04 28.57 50.2C28.06 49.36 27.6 48.5 27.19 47.6C26.78 46.71 26.43 45.8 26.13 44.86C25.83 43.93 25.58 42.98 25.39 42.02C25.2 41.06 25.07 40.08 24.99 39.11C24.92 38.13 24.9 37.15 24.94 36.17C24.98 35.19 25.08 34.21 25.24 33.24C25.39 32.27 25.6 31.32 25.87 30.37C26.14 29.43 26.46 28.5 26.84 27.59C27.22 26.69 27.64 25.81 28.13 24.95C28.61 24.1 29.14 23.27 29.71 22.48C30.29 21.68 30.91 20.93 31.58 20.21C32.25 19.49 32.96 18.81 33.7 18.17C34.45 17.54 35.23 16.94 36.05 16.4C36.86 15.86 37.71 15.36 38.59 14.92C39.46 14.47 40.36 14.08 41.28 13.74C42.2 13.4 43.14 13.12 44.09 12.89C45.05 12.66 46.01 12.49 46.99 12.37C47.96 12.25 48.94 12.2 49.92 12.2C50.9 12.2 51.88 12.25 52.86 12.37C53.83 12.49 54.8 12.66 55.75 12.89C56.7 13.12 57.64 13.4 58.56 13.74C59.48 14.08 60.38 14.47 61.26 14.92C62.13 15.36 62.98 15.86 63.79 16.4C64.61 16.94 65.39 17.54 66.14 18.17C66.89 18.81 67.59 19.49 68.26 20.21C68.93 20.93 69.55 21.68 70.13 22.48C70.71 23.27 71.24 24.1 71.72 24.95C72.2 25.81 72.63 26.69 73 27.6C73.38 28.5 73.7 29.43 73.97 30.37C74.24 31.32 74.45 32.27 74.61 33.24C74.76 34.21 74.86 35.19 74.9 36.17C74.94 37.15 74.92 38.13 74.85 39.11C74.77 40.08 74.64 41.06 74.45 42.02C74.26 42.98 74.02 43.93 73.72 44.86C73.42 45.8 73.06 46.71 72.65 47.6C72.24 48.5 71.78 49.36 71.27 50.2C70.76 51.04 70.2 51.85 69.6 52.62C68.99 53.39 68.34 54.12 67.65 54.82C66.96 55.52 66.23 56.17 65.46 56.78C64.69 57.39 63.89 57.95 63.05 58.47C62.22 58.99 61.36 59.45 60.47 59.86C59.58 60.28 58.67 60.64 57.73 60.95ZM32.66 71.54L32.66 76.21L49.92 76.21L49.92 79.33L29.53 79.33L29.53 84L70.31 84L70.31 79.33L53.05 79.33L53.05 76.21L67.18 76.21L67.18 71.54L53.05 71.54L53.05 68.43L54.61 68.43L54.61 61.75C51.48 62.35 48.36 62.35 45.23 61.75L45.23 68.43L49.92 68.43L49.92 71.54L32.66 71.54ZM49.92 15.47C48.49 15.48 47.07 15.62 45.67 15.9C44.27 16.19 42.91 16.61 41.59 17.16C40.27 17.71 39.01 18.38 37.83 19.18C36.64 19.98 35.54 20.89 34.53 21.9C33.52 22.91 32.62 24.02 31.83 25.21C31.04 26.4 30.37 27.66 29.83 28.98C29.28 30.31 28.87 31.67 28.6 33.07C28.32 34.48 28.18 35.89 28.19 37.32C28.19 38.76 28.33 40.17 28.61 41.57C28.9 42.98 29.31 44.34 29.86 45.66C30.41 46.98 31.09 48.24 31.88 49.42C32.68 50.61 33.58 51.71 34.6 52.72C35.61 53.73 36.71 54.63 37.9 55.43C39.09 56.22 40.35 56.89 41.67 57.43C43 57.98 44.36 58.39 45.76 58.67C47.17 58.95 48.58 59.08 50.02 59.08C51.45 59.08 52.86 58.94 54.27 58.66C55.67 58.38 57.03 57.97 58.35 57.42C59.67 56.87 60.93 56.2 62.12 55.4C63.31 54.6 64.41 53.7 65.42 52.69C66.43 51.68 67.33 50.57 68.13 49.38C68.92 48.2 69.59 46.94 70.14 45.62C70.69 44.29 71.1 42.93 71.38 41.53C71.66 40.13 71.8 38.71 71.8 37.28C71.79 35.84 71.65 34.42 71.37 33.02C71.08 31.61 70.67 30.25 70.11 28.93C69.56 27.6 68.89 26.35 68.09 25.16C67.29 23.96 66.38 22.86 65.37 21.85C64.35 20.84 63.25 19.94 62.06 19.14C60.86 18.35 59.6 17.67 58.28 17.13C56.95 16.58 55.59 16.17 54.18 15.89C52.77 15.61 51.35 15.47 49.92 15.47ZM63.48 35.44L57.22 41.15L59.18 49.26C59.34 49.94 59.14 50.48 58.57 50.89C58 51.3 57.42 51.32 56.83 50.94L49.95 46.66L43.06 50.94C42.81 51.1 42.54 51.18 42.24 51.18C42 51.18 41.77 51.13 41.56 51.03C41.34 50.92 41.16 50.78 41.01 50.59C40.86 50.4 40.76 50.19 40.71 49.96C40.66 49.73 40.66 49.49 40.72 49.26L42.68 41.15L36.42 35.44C35.91 34.98 35.77 34.42 36 33.77C36.24 33.12 36.7 32.77 37.39 32.74L45.43 32.32L48.49 24.27C48.74 23.6 49.23 23.26 49.95 23.26C50.67 23.26 51.15 23.6 51.41 24.27L54.47 32.32L62.5 32.74C63.19 32.77 63.66 33.12 63.89 33.77C64.12 34.42 63.99 34.98 63.48 35.44ZM53.28 35.38C52.61 35.34 52.15 35.01 51.9 34.37L49.95 29.21L47.99 34.37C47.75 35.01 47.29 35.34 46.61 35.37L41.28 35.65L45.47 39.47C45.92 39.88 46.07 40.39 45.93 40.99L44.65 46.28L49.12 43.5C49.67 43.16 50.22 43.16 50.77 43.5L55.24 46.28L53.96 40.99C53.82 40.39 53.97 39.88 54.42 39.47L58.61 35.65L53.28 35.38Z" fill="#031232" fill-opacity="1.000000" fill-rule="nonzero"/>
	</g>
</svg>
